<?xml version="1.0" encoding="UTF-8"?>
<svg id="Lager_1" xmlns="http://www.w3.org/2000/svg" version="1.1" viewBox="0 0 480.96 222.98">
  <path d="M365.86,53.44c-.08.16-3.73,7.91-.99,13.89.97,2.12,4.01,5.95,7.16,7.63,1.74.93,3.61,1.58,5.53,2.16,2.11.64,4.85,1.21,7.4,1.52,5.6.69,10.62.55,15.23-.34,4.67-.9,8.15-2.32,11.26-3.94,5.89-3.08,11.46-10.14,11.55-10.29,8.12-13.26,16.16-25.8,25.27-38.94,8.81-12.71-7.76-20.79-16.46-8.24-8.79,12.68-17.52,26.25-25.41,39.1-.02,0-.03.01-.04.02-.84.44-2.51,1.14-4.27,1.48-1.84.36-4.73.6-8.8.1-2.15-.26-3.5-.58-4.76-.97-1.44-.44-2.34-.81-2.81-1.05,3.01-5.92,6.14-11.82,9.38-17.74,3.52-6.43,7.64-13.65,11.45-20.08,7.61-12.87-9.59-19.98-17.56-6.51-4.25,7.19-7.9,13.59-11.85,20.79-3.91,7.14-7.69,14.26-11.27,21.42Z"/>
  <path d="M95.13,131c-.72-4.73-1.42-9.7-2.06-14.69,1.22-.67,2.27-1.25,3.14-1.71,1.27-.67,2.03-1.03,3.85-1.96,1.46-.74,3-1.53,4.49-2.29.26,3.91.54,7.82.85,11.72,1.06,13.22,22.17,5.28,21.16-7.3-1.52-19.03-2.47-38.84-2.47-57.98,0-13.2-21.21-7.57-21.21,5.89,0,9.18.21,18.27.57,27.3-.08.04-.16.08-.24.12-3.03,1.51-5.49,2.8-8.24,4.19-.86.44-2.81,1.41-4.21,2.15,0,0-.02,0-.02.01-.79-7.69-1.49-15.72-2.06-23.3-.97-13.06-22.12-5.63-21.16,7.3.76,10.27,1.6,19.68,2.74,29.79,1.14,10.11,2.33,19.46,3.85,29.42,1.94,12.72,22.91,3.74,21.01-8.67Z"/>
  <path d="M193.32,97.3c5.56-1.67,10.28-3.18,15.09-4.44,5.2-1.37,10.4-2.69,15.6-4.03,13.39-3.46,14.52-24.12.42-20.48-5.2,1.34-10.41,2.66-15.6,4.03-1.37.36-2.74.74-4.09,1.13.18-1.91.37-3.83.56-5.76.85-.21,1.69-.43,2.97-.75,3.44-.88,6.89-1.76,10.33-2.64,13.41-3.42,14.53-24.08.42-20.48-3.44.88-6.89,1.76-10.33,2.64-.27.07-.61.15-.99.25.44-3.4.9-6.79,1.38-10.16.9-.24,1.79-.48,2.45-.63.66-.16,2.44-.53,3.66-.79l16.12-3.52c13.45-2.94,15.48-23.78,1.53-20.74-5.37,1.17-10.74,2.34-16.12,3.52-1.47.32-2.39.48-4.4.96-1.67.4-2.76.72-4.14,1.07-2.66.69-5.32,1.37-7.99,2.05-4.39,1.13-10.02,7.36-10.68,11.56-3.17,19.99-5.34,39.38-6.92,59.3-.5,6.24,3.97,9.94,10.74,7.91Z"/>
  <path d="M142.96,115.85c1.64-.79,4.15-1.8,6.67-2.82,2.21-.9,4.71-1.88,7.47-3,2.1-.85,4.25-1.61,7.18-2.71,2.17-.82,4.91-1.81,7.36-2.72,13.47-4.97,12.08-24.91-1.8-19.79-2.58.95-4.88,1.78-7.73,2.85-2.07.78-5.02,1.83-7.91,3-.97.4-2.01.81-3.1,1.24-.03-2.16-.05-4.33-.06-6.5,4.02-1.54,8.31-3.08,12.8-4.76,13.47-5.03,11.77-24.86-2.17-19.65-3.35,1.25-6.88,2.52-10.54,3.89.03-1.74.07-3.48.11-5.19.04-1.8.09-3.69.16-5.62,1.94-.71,3.87-1.41,5.85-2.1,4.84-1.67,10.28-3.43,15.42-5.14,13.17-4.39,13.13-24.77-1.06-20.04-5.26,1.75-10.27,3.36-15.79,5.26-5.27,1.82-10.78,3.93-15.75,5.77-4.45,1.65-9.32,8.17-9.51,12.41-.22,4.97-.4,9.74-.52,14.98-.11,4.97-.22,9.67-.22,14.9,0,9.67,0,19.72.37,29.66.26,7,7.93,8.41,12.78,6.05Z"/>
  <path d="M469.1,44.07c2.94-3.88,5.93-7.77,8.94-11.65,9.36-12.1-5.91-21.96-15.48-9.59-3,3.88-6,7.77-8.94,11.65-3.08,4.07-6.28,8.46-9.04,12.27-5.9,8.16-11.59,16.38-17.13,24.61-4.01,5.97-2.98,12.91,3.34,14.33,5.66,1.27,10.37,2.2,15.51,3.48,4.91,1.22,10.25,2.8,15.37,4.21,11.67,3.19,22.79-17.27,10.65-20.59-5.23-1.43-10.19-2.92-15.69-4.29-1.44-.36-2.93-.71-4.42-1.05,2.73-3.93,5.51-7.86,8.34-11.77,2.96-4.09,5.63-7.76,8.54-11.61Z"/>
  <path d="M258.15,74.86c.26-1.38.54-2.76.83-4.15,1.04.32,5.02,1.76,12.11,4.67,1.81.75,4.12,1.69,5.64,2.19,9.88,3.24,28.58,2.61,40.79-4.37,6.31-3.61,9.5-11.65,13.43-19.41,1.73-.02,3.47-.03,5.37-.04,4.17-.02,9.14.29,14.11.37,12.66.19,19.82-21,6.25-21.21-4.56-.07-9.11-.39-14.46-.37-.71,0-1.46,0-2.22.02,1.51-3.67,3.05-7.33,4.63-11,8.05.3,16.1.61,24.16.91,12.64.48,20.06-20.69,6.6-21.2-10.99-.42-21.98-.83-32.97-1.25-4.21-.16-10.8,4.29-12.82,8.78-4.18,9.27-8.07,18.53-11.81,27.8-3.68,9.13-8.28,21.31-8.49,21.42-4.07,2.16-12.15,1.91-15.3,1.08-1.23-.32-2.37-.68-3.49-1.05.58-.53,1.15-1.07,1.75-1.66,6.48-6.37,11.18-13.58,14.23-21.47,2.94-7.6,4.1-16.15.68-22.87-3.28-6.43-12.02-10.32-22.27-9.27-3.34.34-7.31,1.12-10.97,2.55-3.4,1.33-6.71,3.21-9.25,5.01-5.75,4.08-9.54,8.53-12.4,12.88-2.83,4.3-4.55,8.27-5.57,11.29-1.1,3.24-1.39,5.22-1.4,5.25-2.35,11.93-5.54,24.13-7.99,37-2.65,13.92,18.24,11.62,20.81-1.9ZM268.98,31.11c1.1-1.66,2.75-3.46,4.3-4.56,1.14-.81,1.89-1.21,3.2-1.73,1-.39,2.33-.72,4.7-.97,5.21-.53,6.12.93,6.45,1.57.53,1.04.35,3.38-.78,7.31-4.28,14.8-20.75,16.6-23.15,16.6.82-9.26,4.15-16.52,5.27-18.23Z"/>
  <path d="M48.98,137.23s.2,2.78-1,6.66c-1.15,3.74-1.88,4.91-5.37,6.45-1.36.59-4.99.37-9.15-2.83-1.76-1.35-3.51-3.12-4.98-4.86-.04-.05-.98-1.39-.98-1.39-3.53-5.86-5.81-12.78-6.3-19.61-.42-5.81.27-15.01,5.73-18.53,3.04-1.96,6.62-1.66,9.65.12,4.28,2.52,4.82,4.23,4.82,4.23,6.59,9.72,25.58-4.68,18.92-14.5-.15-.22-4.4-5.8-9.51-8.81-3.03-1.78-7.08-3.42-12.32-3.62-4.52-.17-11.47,1.14-17.82,4.89C5.22,94.52-1.4,113.35.25,130.59c1.48,15.48,10.12,34.39,25.71,40.07,2.64.96,5.44,1.47,8.25,1.48,4.16.02,8.25-1.1,12.04-2.76,12.11-5.32,19.71-17.71,21.89-24.8,2.31-7.49,2.03-14.02,2.02-14.3-.56-12.89-21.77-6.42-21.19,6.95Z"/>
  <path d="M293.31,109.8c2.8-.36,4.49-.63,6.74-.88,1.4-.16,2.74-.34,3.31-.39,1.16-.11,2.33-.23,3.49-.34,13.13-1.28,17.92-22.47,4.09-21.13-1.16.11-2.33.23-3.49.34-1.8.17-2.71.32-3.68.43-2.37.27-5.29.69-7.11.93-2.37.31-4.47.54-7.11.93-2.66.39-4.75.77-7.13,1.15-5.04.81-11.32,7.29-11.86,12.34-.99,9.17-1.97,18.9-2.62,28.3-.32,4.67-.63,9.13-.93,14.07-.27,4.47-.51,9.69-.71,14.17-.27,5.91,4.93,8.75,9.65,7.82,1.59-.31,2.07-.43,3.11-.62,1.03-.18,1.52-.22,3.1-.47,2.28-.36,4.28-.68,6.83-1.11,1.1-.19,2.19-.39,3.29-.58.49-.09,1.25-.23,1.46-.26.02,0,.73-.09,1.27-.16,2.21-.29,4.42-.57,6.63-.86,13.13-1.7,17.34-22.86,3.37-21.05-2.21.29-4.42.57-6.63.86-.67.09-.79.08-2.01.27-.89.14-1.22.21-1.83.32-1.1.19-2.19.39-3.29.58-.99.17-2.13.35-3.31.54.07-1.37.15-2.78.24-4.26.06-.9.11-1.84.17-2.79.36-.08.73-.16,1.1-.24,2.87-.6,5.22-.98,8.65-1.63,13.09-2.47,16.14-23.5,1.9-20.81-2.46.46-6.03,1.08-9.02,1.71-.36.08-.74.16-1.11.24.21-2.34.42-4.69.66-7.05.93-.12,1.86-.23,2.75-.35Z"/>
  <path d="M402.32,174.15c-2.69-.25-5.78-1.06-8.48-2.28-1.46-.66-2.87-1.44-4.27-2.31-1.53-.95-3.06-1.91-4.53-2.99-5.51-4.04-11.3-10.14-16.67-15.99-2.67-2.9-5.12-5.85-7.44-8.63-.43-.51-.85-1.03-1.28-1.54,1.99-1.39,3.73-2.93,5.51-4.75,5.7-5.81,9.29-12.53,11.43-19.27,2.24-7.03,2.66-13.69.47-20.01-2.57-7.42-7.74-11.21-15.87-12.34-14.9-2.08-27.56,6.46-33.43,15.9-2.41,3.87-4.29,8.15-5.21,12.63-1.5,7.3-2.64,14.7-3.93,22.04-1.19,6.77-2.14,12.72-3.15,19.5-2.06,13.73,18.97,10.54,21-3,.04-.25.08-.51.11-.76.3.35.63.72.99,1.13.93,1.04,2.01,2.17,3.07,3.45s2.18,2.63,3.31,3.98c2.32,2.79,4.77,5.73,7.44,8.63,5.22,5.69,11.09,12.09,18.35,17.42,1.72,1.26,3.51,2.39,5.32,3.52,1.94,1.21,3.92,2.28,5.96,3.2,4.27,1.92,8.59,3.13,13.64,3.59,12.54,1.16,20.76-19.92,7.65-21.14ZM356.65,113.6c-.63,3.53-2.42,6.78-4.51,9.65-2.61,2.95-8.53,2.26-11.38,2.19.91-4.77,2.27-11.26,4.14-18.27.48-1.82,1.31-2.37,3.17-2.45,2.55-.11,6.4-.12,7.91,2.29,1.2,1.9,1.04,4.47.66,6.59Z"/>
  <path d="M133.32,192.46c.01.14.26,3.07-.61,6.59-.79,3.19-.94,2.79-1.2,2.76.09-.01.19-.04.06-.05-.16-.01-1.15-.26-1.44-.4-1.72-.8-3.6-2.17-5.3-3.87-2.62-2.62-5.76-7.37-5.77-7.37-2.66-4.74-4.52-9.52-5.68-14.08-1.1-4.32-1.45-8.72-1.24-12.1.21-3.4,1.13-6.08,1.59-6.94.92-1.73.61-1.04.63-1.05,1.52-.77,3.47-.98,6.83,1.52,3.71,2.76,4.43,4.71,4.56,4.94,5.92,10.37,25.09-3.7,19.25-13.95,0,0-3.41-5.59-8.26-9.19-4.87-3.62-14.82-8.1-27.46-1.66-5.96,3.04-11.1,9.08-13.71,13.95-3.13,5.86-4.27,11.54-4.62,17.2-.35,5.84.21,11.56,1.74,17.61,1.49,5.86,3.83,11.86,7.12,17.71.16.28,2.3,4.65,8.04,10.39,2.48,2.48,5.56,4.91,9.18,6.59,2.41,1.11,4.28,1.6,6.89,1.85,2.84.26,5.6-.03,8.93-1.16,12.32-4.19,18.79-16.92,20.42-23.47,1.77-7.13,1.23-12.85,1.21-13.1-1.03-13.05-22.18-5.63-21.16,7.3Z"/>
  <path d="M422.44,85.05c-8.73-3.62-19.22-.92-26.17,6.27-6.74,6.98-8.3,13.19-8.75,18.5-1.17,13.77,7.11,21.31,11.53,24.85,5.47,4.38,9.4,7.8,8.96,13.3-.14-.02-.31-.04-.52-.07-.41-.05-1.96-.5-3.25-1.19-1.49-.8-3.17-1.99-4.94-3.69-.88-.85-2.16-2.18-3.31-3.44-1.35-1.48-2.58-2.88-2.61-2.92-6.96-8.86-26.45,4.92-18.92,14.5,2.97,3.78,3.06,3.74,4.56,5.39,1.22,1.34,2.24,2.42,3.54,3.66,2.67,2.57,5.4,4.49,8.01,5.9,2.88,1.55,5.22,2.41,8.59,2.85,2.68.35,5.18.61,9.31-.53,16.29-4.48,21.29-21.56,19.97-33.03-1.21-10.48-9.1-15.15-13.59-18.75-5.31-4.26-6.62-6-6.2-10.93.04-.41.15-.83.28-1.18.26.13.58.28,1.01.46,1.49.62,3.79,2.3,5.42,5.72,5.24,11,24.74-2.48,19.69-13.1-3.41-7.94-8.04-10.68-12.6-12.57Z"/>
  <path d="M190.37,116.32s-8.04-3.5-17.43-.19c-6.03,2.12-11,6.67-14.14,10.86-3.49,4.66-5.47,9.44-6.77,14.63-2.49,10.01-1.95,20.85,1.83,31.6.07.19,2.37,5.84,5.17,9.45,4.83,6.22,13.13,13.52,26.5,7.57,11.65-5.18,16.79-15.5,18.97-23.64,2.57-9.6,3.42-20.04,1.73-29.97-1.45-8.46-5.42-17.01-15.87-20.31ZM184.03,167.02c-1.05,3.91-1.96,4.1-2.12,4.18-.18.08-1.22.48-3.94-3.03-3.11-4-3.79-6.54-3.79-6.54-2.81-7.99-2.83-15.71-1.56-20.8.57-2.29,1.52-4.03,1.93-4.58.05-.07.09-.13.13-.18,5.81,0,9.81,4.92,10.61,9.57,1.05,6.14.4,15.24-1.24,21.38Z"/>
  <path d="M256.56,105.69c-3.09-3.58-10.46-9-21.53-6.06-16.88,4.48-22.55,6.56-22.55,9.87-.82,18.5-.91,43.34-.53,61.65.16,7.43,2.78,9.47,10.95,6.96,4.86-1.5,9.47-3.02,13.9-4.17,4.85-1.25,9.4-3.65,13.3-7.03,2.84-2.46,5.73-5.9,7.5-8.72,3.75-5.98,4.5-10.26,4.53-10.35,1.8-6.63,4.09-19.26-.07-32.62-.06-.21-1.7-5.12-5.5-9.53ZM243.12,140.12c-.28,3.56-.53,7.91-2.74,10.88-1.89,2.54-4.58,2.89-7.37,3.63-.05-12.12.18-29.43.31-34.2.33-.08.64-.16.92-.23,2.39-.57,4.59,1.22,5.89,3.13,1.16,1.7,1.79,3.72,2.23,5.73.8,3.62,1.04,7.36.75,11.06Z"/>
</svg>