<?xml version="1.0" encoding="UTF-8"?>
<svg xmlns="http://www.w3.org/2000/svg" version="1.1" viewBox="0 0 250.42 116.1">
    <style>
        path {
            fill: #282828;
        }
        @media (prefers-color-scheme: dark) {
            path {
                fill: #fff;
            }
        }
    </style>
  <path d="M190.49,27.83c-.04.08-1.94,4.12-.52,7.23.5,1.1,2.09,3.1,3.73,3.97.9.48,1.88.82,2.88,1.13,1.1.33,2.53.63,3.85.79,2.91.36,5.53.29,7.93-.18,2.43-.47,4.24-1.21,5.86-2.05,3.06-1.6,5.97-5.28,6.02-5.36,4.23-6.91,8.42-13.43,13.16-20.27,4.58-6.62-4.04-10.83-8.57-4.29-4.58,6.6-9.12,13.67-13.23,20.36,0,0-.01,0-.02.01-.44.23-1.31.59-2.23.77-.96.19-2.46.31-4.58.05-1.12-.14-1.82-.3-2.48-.5-.75-.23-1.22-.42-1.46-.55,1.57-3.08,3.2-6.16,4.89-9.23,1.83-3.35,3.98-7.11,5.96-10.46,3.96-6.7-4.99-10.41-9.14-3.39-2.22,3.75-4.12,7.08-6.17,10.83-2.04,3.72-4.01,7.43-5.87,11.15Z"/>
  <path d="M49.53,68.21c-.38-2.46-.74-5.05-1.07-7.65.63-.35,1.18-.65,1.64-.89.66-.35,1.06-.54,2-1.02.76-.39,1.56-.8,2.34-1.19.14,2.04.28,4.07.44,6.1.55,6.88,11.54,2.75,11.02-3.8-.79-9.91-1.28-20.22-1.28-30.19,0-6.87-11.04-3.94-11.04,3.07,0,4.78.11,9.51.3,14.22-.04.02-.08.04-.12.06-1.58.79-2.86,1.46-4.29,2.18-.45.23-1.47.73-2.19,1.12,0,0,0,0-.01,0-.41-4.01-.78-8.18-1.07-12.13-.5-6.8-11.52-2.93-11.02,3.8.4,5.34.83,10.25,1.43,15.51.59,5.27,1.21,10.13,2.01,15.32,1.01,6.62,11.93,1.95,10.94-4.52Z"/>
  <path d="M100.66,50.66c2.9-.87,5.35-1.65,7.86-2.31,2.7-.71,5.42-1.4,8.12-2.1,6.97-1.8,7.56-12.56.22-10.66-2.71.7-5.42,1.39-8.12,2.1-.71.19-1.43.38-2.13.59.09-1,.19-2,.29-3,.44-.11.88-.22,1.54-.39,1.79-.46,3.59-.92,5.38-1.37,6.98-1.78,7.56-12.54.22-10.66-1.79.46-3.58.92-5.38,1.37-.14.04-.32.08-.51.13.23-1.77.47-3.53.72-5.29.47-.12.93-.25,1.27-.33.34-.08,1.27-.28,1.91-.41l8.39-1.83c7.01-1.53,8.06-12.38.8-10.8-2.8.61-5.59,1.22-8.39,1.83-.76.17-1.24.25-2.29.5-.87.21-1.44.37-2.16.56-1.39.36-2.77.71-4.16,1.07-2.29.59-5.21,3.83-5.56,6.02-1.65,10.41-2.78,20.51-3.6,30.87-.26,3.25,2.07,5.17,5.59,4.12Z"/>
  <path d="M74.44,60.32c.85-.41,2.16-.94,3.47-1.47,1.15-.47,2.45-.98,3.89-1.56,1.09-.44,2.21-.84,3.74-1.41,1.13-.42,2.56-.94,3.83-1.41,7.01-2.59,6.29-12.97-.94-10.3-1.34.49-2.54.93-4.02,1.48-1.08.4-2.61.95-4.12,1.56-.51.21-1.05.42-1.61.65-.02-1.13-.03-2.25-.03-3.39,2.09-.8,4.33-1.6,6.67-2.48,7.01-2.62,6.13-12.94-1.13-10.23-1.74.65-3.58,1.31-5.49,2.03.02-.91.04-1.81.06-2.7.02-.94.05-1.92.08-2.92,1.01-.37,2.02-.74,3.05-1.09,2.52-.87,5.35-1.78,8.03-2.68,6.86-2.29,6.83-12.9-.55-10.43-2.74.91-5.35,1.75-8.22,2.74-2.74.95-5.61,2.04-8.2,3.01-2.32.86-4.85,4.26-4.95,6.46-.12,2.59-.21,5.07-.27,7.8-.06,2.59-.12,5.03-.12,7.76,0,5.03,0,10.27.19,15.44.14,3.65,4.13,4.38,6.66,3.15Z"/>
  <path d="M244.24,22.94c1.53-2.02,3.09-4.04,4.65-6.06,4.87-6.3-3.08-11.43-8.06-4.99-1.56,2.02-3.12,4.05-4.65,6.06-1.6,2.12-3.27,4.41-4.71,6.39-3.07,4.25-6.04,8.53-8.92,12.81-2.09,3.11-1.55,6.72,1.74,7.46,2.95.66,5.4,1.14,8.08,1.81,2.56.64,5.33,1.46,8,2.19,6.08,1.66,11.87-8.99,5.54-10.72-2.72-.75-5.3-1.52-8.17-2.23-.75-.19-1.52-.37-2.3-.54,1.42-2.05,2.87-4.09,4.34-6.13,1.54-2.13,2.93-4.04,4.45-6.04Z"/>
  <path d="M134.41,38.97c.14-.72.28-1.44.43-2.16.54.17,2.61.91,6.3,2.43.94.39,2.14.88,2.94,1.14,5.14,1.68,14.88,1.36,21.24-2.27,3.28-1.88,4.95-6.07,6.99-10.11.9,0,1.81-.02,2.8-.02,2.17-.01,4.76.15,7.35.19,6.59.1,10.32-10.93,3.25-11.04-2.37-.04-4.74-.21-7.53-.19-.37,0-.76,0-1.15,0,.79-1.91,1.59-3.82,2.41-5.73,4.19.16,8.38.32,12.58.48,6.58.25,10.44-10.77,3.44-11.04-5.72-.22-11.44-.43-17.16-.65-2.19-.08-5.62,2.24-6.68,4.57-2.18,4.82-4.2,9.65-6.15,14.48-1.92,4.75-4.31,11.1-4.42,11.15-2.12,1.12-6.33.99-7.97.56-.64-.17-1.23-.35-1.81-.55.3-.27.6-.56.91-.86,3.37-3.32,5.82-7.07,7.41-11.18,1.53-3.96,2.14-8.41.35-11.91-1.71-3.35-6.26-5.38-11.59-4.83-1.74.18-3.81.58-5.71,1.33-1.77.69-3.49,1.67-4.82,2.61-2.99,2.12-4.97,4.44-6.46,6.7-1.47,2.24-2.37,4.31-2.9,5.88-.57,1.69-.73,2.72-.73,2.74-1.22,6.21-2.88,12.56-4.16,19.26-1.38,7.25,9.5,6.05,10.84-.99ZM140.04,16.2c.57-.87,1.43-1.8,2.24-2.37.59-.42.98-.63,1.67-.9.52-.2,1.21-.38,2.45-.5,2.71-.28,3.19.48,3.36.82.28.54.18,1.76-.41,3.81-2.23,7.7-10.81,8.64-12.05,8.64.43-4.82,2.16-8.6,2.74-9.49Z"/>
  <path d="M25.5,71.45s.1,1.45-.52,3.47c-.6,1.95-.98,2.56-2.8,3.36-.71.31-2.6.19-4.76-1.48-.92-.7-1.82-1.62-2.59-2.53-.02-.03-.51-.73-.51-.73-1.84-3.05-3.03-6.65-3.28-10.21-.22-3.03.14-7.82,2.99-9.65,1.58-1.02,3.45-.86,5.02.06,2.23,1.31,2.51,2.2,2.51,2.2,3.43,5.06,13.32-2.44,9.85-7.55-.08-.12-2.29-3.02-4.95-4.59-1.58-.93-3.69-1.78-6.41-1.89-2.35-.09-5.97.6-9.28,2.55C2.72,49.21-.73,59.02.13,67.99c.77,8.06,5.27,17.91,13.39,20.86,1.38.5,2.83.76,4.3.77,2.17.01,4.3-.57,6.27-1.44,6.3-2.77,10.26-9.22,11.4-12.91,1.2-3.9,1.06-7.3,1.05-7.45-.29-6.71-11.34-3.34-11.03,3.62Z"/>
  <path d="M159.77,56.33c6.84-.66,9.33-11.7,2.13-11-4.97.48-9.92,1.17-14.85,1.96-2.62.42-5.89,3.79-6.18,6.42-.52,4.78-1.03,9.84-1.36,14.74-.17,2.43-.33,4.76-.48,7.33-.14,2.33-.27,5.04-.37,7.38-.14,3.08,2.56,4.56,5.03,4.07,4.42-.87,8.91-1.53,13.38-2.11,3.19-.41,5.73-3.22,6.2-6.35.19-1.25.03-2.67-.86-3.63-1.42-1.52-3.69-.96-5.51-.74-.6.07-6.94.79-6.96,1.1.02-.31.2-3.14.24-3.14.19-.04,3.66-.54,5.45-.88,6.82-1.29,8.62-11.46.97-10.68-1.29.13-5.45.87-5.64.92.11-1.22.21-3.13.33-4.35.48-.06,6.13-.81,8.49-1.02Z"/>
  <path d="M209.47,91.32c-7.29-.48-13.92-8.31-22.91-18.85,6.16-3.29,7.76-7.25,9.52-11.86,1.38-3.59,1.38-7.13.25-10.42-1.34-3.86-4.03-5.84-8.26-6.43-7.76-1.08-14.35,3.36-17.4,8.28-1.25,2.02-2.23,4.24-2.71,6.58-.78,3.8-3.16,18.1-3.69,21.63-1.07,7.15,9.88,5.49,10.93-1.56.02-.13.04-.26.06-.4.16.18.33.38.52.59.49.54,12.97,14.66,16.75,17.43.89.66,7.14,5.6,12.97,6.01,6.54.46,10.82-10.56,3.98-11ZM185.57,60.63c-.52,1.4-1.79,5.55-8.14,4.68.49-2.57,1.22-6.06,2.23-9.84.26-.98.71-1.21,1.71-1.32,6.6-.7,4.61,5.39,4.21,6.48Z"/>
  <path d="M69.41,100.2c0,.07.14,1.6-.32,3.43-.41,1.66-.49,1.45-.62,1.44.05,0,.1-.02.03-.03-.08,0-.6-.14-.75-.21-.89-.41-1.87-1.13-2.76-2.02-1.36-1.36-3-3.84-3-3.84-1.39-2.47-2.36-4.96-2.96-7.33-.57-2.25-.75-4.54-.65-6.3.11-1.77.59-3.17.83-3.61.48-.9.32-.54.33-.55.79-.4,1.81-.51,3.55.79,1.93,1.43,2.3,2.45,2.37,2.57,3.08,5.4,13.07-1.93,10.02-7.26,0,0-1.77-2.91-4.3-4.79-2.54-1.88-7.72-4.21-14.3-.86-3.1,1.58-5.78,4.73-7.14,7.27-1.63,3.05-2.22,6.01-2.4,8.96-.18,3.04.11,6.02.91,9.17.78,3.05,1.99,6.17,3.71,9.22.08.15,1.2,2.42,4.19,5.41,1.29,1.29,2.89,2.56,4.78,3.43,1.25.58,2.23.84,3.59.96,1.48.14,2.91-.01,4.65-.6,6.41-2.18,9.78-8.81,10.63-12.22.92-3.71.64-6.69.63-6.82-.54-6.79-11.55-2.93-11.02,3.8Z"/>
  <path d="M219.95,44.28c-4.54-1.89-10.01-.48-13.62,3.27-3.51,3.63-4.32,6.87-4.56,9.63-.61,7.17,3.7,11.1,6,12.94,2.85,2.28,4.89,4.06,4.67,6.93-.08-.01-.16-.02-.27-.04-.21-.03-1.02-.26-1.69-.62-.77-.42-1.65-1.04-2.57-1.92-.46-.44-1.12-1.13-1.72-1.79-.7-.77-1.34-1.5-1.36-1.52-3.63-4.61-13.77,2.56-9.85,7.55,1.54,1.97,1.59,1.95,2.38,2.81.64.7,1.17,1.26,1.84,1.91,1.39,1.34,2.81,2.34,4.17,3.07,1.5.81,2.72,1.25,4.47,1.48,1.4.18,2.69.32,4.85-.27,8.48-2.33,11.09-11.23,10.4-17.2-.63-5.46-4.74-7.89-7.08-9.76-2.77-2.22-3.44-3.13-3.23-5.69.02-.22.08-.43.14-.61.14.07.3.15.52.24.78.32,1.98,1.2,2.82,2.98,2.73,5.73,12.88-1.29,10.25-6.82-1.78-4.13-4.18-5.56-6.56-6.55Z"/>
  <path d="M90.04,60.46c-7.29,2.1-10.21,10.57-10.88,13.27-1.3,5.21-1.02,10.85.95,16.45.03.1,5.44,14.15,16.49,8.86,5.99-2.86,8.36-8.19,9.87-12.31,3.77-10.23,1.33-31.39-16.44-26.28ZM95.95,87.31c-.57,2.14-1.07,2.26-1.16,2.28-.09.02-2.83-2.09-4.23-5.23s-1.72-10.82.7-13.98c8.48.41,5.59,13.57,4.69,16.93Z"/>
  <path d="M133.58,55.03c-1.6-1.87-5.45-4.68-11.21-3.16-8.79,2.33-11.74,3.41-11.74,5.14-.29,9.57-.36,22.17-.28,32.1.03,3.87,1.36,4.61,5.7,3.62,4.73-1.07,12.76-2.76,18.07-10.37,2.82-4.05,6.56-19.05-.55-27.33ZM126.72,73.18c-.15,1.98-.58,7.16-5.74,8.07l.26-19.05c6.79-2.45,5.65,8.92,5.48,10.98Z"/>
</svg>
