<?xml version="1.0" encoding="UTF-8"?> <svg xmlns="http://www.w3.org/2000/svg" xmlns:xlink="http://www.w3.org/1999/xlink" width="624px" height="167px" viewBox="0 0 624 167" version="1.1"><!-- Generator: Sketch 61.2 (89653) - https://sketch.com --><title>Assets_Freespee Logo_WHITE</title><desc>Created with Sketch.</desc><g id="First-draft" stroke="none" stroke-width="1" fill="none" fill-rule="evenodd"><g id="Logotype" transform="translate(-408.000000, -1320.000000)" fill="#0E3A66"><g id="Assets_Freespee-Logo_WHITE" transform="translate(408.000000, 1320.000000)"><g id="Group" transform="translate(189.324000, 34.618000)"><path d="M9.8904,33.7326389 L6.34,33.7326389 C2.1556,33.7326389 0.1268,31.9505372 0.1268,28.5136268 C0.1268,25.0767165 2.1556,23.2946148 6.34,23.2946148 L9.7636,23.2946148 L9.7636,15.6570362 C9.7636,10.819903 11.5388,7.00111373 14.9624,4.20066824 C18.1324,1.78210168 22.19,0.381878931 27.1352,0.381878931 C34.1092,0.381878931 37.5328,2.80044549 37.5328,8.01945755 C37.5328,9.41968029 37.1524,10.819903 36.138,11.8382469 C35.1236,12.8565907 34.1092,13.6203485 32.7144,13.6203485 L30.9392,13.6203485 L29.164,13.6203485 C26.7548,13.6203485 25.7404,15.0205713 25.7404,17.4391378 L25.7404,24.4402516 L30.5588,24.4402516 C35.3772,24.4402516 37.5328,26.2223532 37.5328,29.6592636 C37.5328,33.096174 35.1236,34.8782757 30.5588,34.8782757 L25.7404,34.8782757 L25.7404,74.5936845 C25.7404,79.8126965 22.9508,82.613142 17.752,82.613142 C12.5532,82.613142 9.7636,79.8126965 9.7636,74.5936845 C9.8904,74.4663915 9.8904,33.7326389 9.8904,33.7326389 L9.8904,33.7326389 Z M43.112,23.9310797 C44.5068,22.5308569 46.282,21.894392 48.3108,21.894392 C50.3396,21.894392 52.1148,22.5308569 53.5096,23.9310797 C54.9044,25.3313024 55.5384,27.1134041 55.5384,29.5319706 L55.5384,35.3874476 L55.9188,35.3874476 C58.328,26.3496462 62.8928,22.148978 69.106,22.148978 C71.5152,22.148978 73.6708,22.7854429 75.3192,24.1856656 C77.0944,25.5858884 77.7284,27.36799 77.7284,29.7865566 C77.7284,35.0055687 75.3192,37.8060142 70.1204,37.8060142 L67.3308,37.8060142 C60.7372,37.8060142 57.5672,43.6614911 57.5672,55.245152 L57.5672,73.7026336 C57.5672,78.9216457 54.7776,81.7220912 49.5788,81.7220912 C44.38,81.7220912 41.5904,78.9216457 41.5904,73.7026336 L41.5904,29.5319706 C41.5904,27.1134041 41.7172,25.3313024 43.112,23.9310797 Z M93.0712,54.6086871 C93.0712,58.8093553 94.466,62.2462657 96.8752,65.0467112 C99.2844,67.8471567 103.0884,68.8655005 107.6532,68.8655005 C111.0768,68.8655005 113.8664,68.2290356 116.2756,66.8288129 C116.656,66.446934 118.3044,65.4285901 120.8404,63.0100236 C122.6156,61.6098008 124.264,60.973336 125.6588,60.973336 C127.434,60.973336 129.0824,61.6098008 130.2236,63.0100236 C131.6184,64.4102463 131.9988,65.8104691 131.9988,67.2106918 C131.9988,71.4113601 129.2092,74.8482704 123.3764,77.6487159 C118.558,80.0672825 112.9788,81.0856263 107.3996,81.0856263 C97.3824,81.0856263 89.394,77.9033019 84.1952,72.0478249 C79.6304,66.8288129 77.2212,60.2095781 77.2212,52.5719995 C77.2212,43.1523192 80.0108,35.8966195 85.2096,30.2957285 C90.4084,24.6948375 97.636,21.894392 107.0192,21.894392 C115.6416,21.894392 122.6156,24.6948375 127.8144,29.9138496 C132.6328,34.7509827 135.042,40.7337526 135.042,47.6075734 C135.042,50.4080189 134.6616,52.1901205 133.6472,53.2084644 C132.6328,54.2268082 130.8576,54.6086871 128.068,54.6086871 L93.0712,54.6086871 L93.0712,54.6086871 Z M120.8404,45.5708857 C120.46,41.7520964 119.0652,38.9516509 116.2756,36.5330844 C113.8664,34.1145178 110.6964,33.096174 107.2728,33.096174 C99.6648,33.096174 94.8464,37.2968422 93.0712,45.5708857 L120.8404,45.5708857 L120.8404,45.5708857 Z M154.8228,54.6086871 C154.8228,58.8093553 156.2176,62.2462657 158.6268,65.0467112 C161.036,67.8471567 164.84,68.8655005 169.4048,68.8655005 C172.8284,68.8655005 175.618,68.2290356 178.0272,66.8288129 C178.4076,66.446934 180.056,65.4285901 182.592,63.0100236 C184.3672,61.6098008 186.0156,60.973336 187.4104,60.973336 C189.1856,60.973336 190.834,61.6098008 191.9752,63.0100236 C193.37,64.4102463 193.7504,65.8104691 193.7504,67.2106918 C193.7504,71.4113601 190.9608,74.8482704 185.128,77.6487159 C180.3096,80.0672825 174.7304,81.0856263 169.1512,81.0856263 C159.134,81.0856263 151.1456,77.9033019 145.9468,72.0478249 C141.382,66.8288129 138.9728,60.2095781 138.9728,52.5719995 C138.9728,43.1523192 141.7624,35.8966195 146.9612,30.2957285 C152.16,24.6948375 159.3876,21.894392 168.7708,21.894392 C177.3932,21.894392 184.3672,24.6948375 189.566,29.9138496 C194.3844,34.7509827 196.7936,40.7337526 196.7936,47.6075734 C196.7936,50.4080189 196.4132,52.1901205 195.3988,53.2084644 C194.3844,54.2268082 192.6092,54.6086871 189.8196,54.6086871 L154.8228,54.6086871 L154.8228,54.6086871 Z M182.2116,45.5708857 C181.8312,41.7520964 180.4364,38.9516509 177.6468,36.5330844 C175.2376,34.1145178 172.0676,33.096174 168.644,33.096174 C161.036,33.096174 156.2176,37.2968422 154.4424,45.5708857 L182.2116,45.5708857 L182.2116,45.5708857 Z M208.2056,26.0950603 C212.39,23.2946148 217.9692,22.276271 224.1824,22.276271 C230.3956,22.276271 235.9748,23.2946148 240.5396,25.4585954 C245.358,27.8771619 248.1476,30.6776074 248.1476,34.1145178 C248.1476,36.1512055 247.5136,37.5514282 246.3724,38.9516509 C245.358,40.3518737 243.5828,40.9883386 241.554,40.9883386 C239.7788,40.9883386 237.75,39.9699948 234.9604,37.5514282 C232.1708,35.1328616 229.1276,34.1145178 225.5772,34.1145178 C219.7444,34.1145178 216.5744,35.8966195 216.5744,38.9516509 C216.5744,40.7337526 217.2084,41.7520964 218.9836,42.7704403 C219.998,43.1523192 222.1536,43.7887841 224.8164,44.5525419 L231.41,45.9527647 C244.5972,49.1350891 250.8104,54.6086871 250.8104,62.6281447 C250.8104,68.4836216 248.4012,73.4480477 243.2024,76.8849581 C238.6376,80.0672825 233.1852,81.4675052 226.5916,81.4675052 C219.6176,81.4675052 213.4044,80.0672825 208.2056,77.266837 C203.0068,74.4663915 200.5976,71.0294811 200.5976,67.2106918 C200.5976,62.6281447 202.6264,60.591457 206.8108,60.591457 C208.586,60.591457 210.2344,61.2279219 212.39,63.0100236 C215.56,65.8104691 217.2084,67.5925708 217.5888,67.8471567 C219.998,69.6292584 222.7876,70.2657233 226.2112,70.2657233 C229.0008,70.2657233 231.0296,69.6292584 232.8048,68.4836216 C234.58,67.3379848 235.214,66.065055 235.214,64.2829534 C235.214,62.5008517 234.58,61.1006289 232.8048,60.464164 C231.7904,60.0822851 229.6348,59.4458202 226.2112,58.4274764 L216.828,56.0089099 C211.6292,54.6086871 207.8252,52.8265854 205.416,50.7898978 C202.246,47.9894523 200.5976,44.170663 200.5976,39.3335299 C200.2172,33.7326389 203.0068,29.1500917 208.2056,26.0950603 L208.2056,26.0950603 Z M262.90492,22.2749742 C267.72332,22.2749742 270.3376,24.6948375 270.3376,29.5319706 L270.3376,31.9505372 L270.718,31.9505372 C273.1272,25.3313024 278.7064,21.894392 287.3288,21.894392 C294.3028,21.894392 300.1356,24.3129586 304.7004,29.1500917 C309.5188,34.7509827 311.928,42.0066824 311.928,51.8082416 C311.928,60.2095781 309.8992,66.8288129 306.0952,72.0478249 C301.5304,77.9033019 295.6976,81.0856263 287.7092,81.0856263 C280.4816,81.0856263 275.2828,78.2851808 272.1128,73.0661688 L271.7324,73.0661688 L271.7324,93.942217 C271.7324,99.161229 268.9428,101.961675 263.744,101.961675 C258.5452,101.961675 255.7556,99.161229 255.7556,93.942217 L255.7556,29.5319706 C255.7556,24.6948375 258.34012,22.2749742 262.90492,22.2749742 Z M293.1616,39.5881158 C291.1328,36.1512055 287.9628,34.3691038 283.7784,34.3691038 C279.594,34.3691038 276.1704,36.1512055 274.0148,39.5881158 C271.986,42.7704403 271.2252,46.5892296 271.2252,51.4263627 C271.2252,56.2634958 272.2396,60.0822851 274.0148,63.2646095 C276.0436,67.0833988 279.594,68.8655005 284.032,68.8655005 C288.5968,68.8655005 292.0204,66.8288129 294.0492,63.0100236 C295.8244,59.8276992 296.4584,56.0089099 296.4584,51.5536557 C296.3316,46.5892296 295.1904,42.7704403 293.1616,39.5881158 L293.1616,39.5881158 Z M330.948,54.6086871 C330.948,58.8093553 332.3428,62.2462657 334.752,65.0467112 C337.1612,67.8471567 340.9652,68.8655005 345.53,68.8655005 C348.9536,68.8655005 351.7432,68.2290356 354.1524,66.8288129 C354.5328,66.446934 356.1812,65.4285901 358.7172,63.0100236 C360.4924,61.6098008 362.1408,60.973336 363.5356,60.973336 C365.3108,60.973336 366.9592,61.6098008 368.1004,63.0100236 C369.4952,64.4102463 369.8756,65.8104691 369.8756,67.2106918 C369.8756,71.4113601 367.086,74.8482704 361.2532,77.6487159 C356.4348,80.0672825 350.8556,81.0856263 345.2764,81.0856263 C335.2592,81.0856263 327.2708,77.9033019 322.072,72.0478249 C317.5072,66.8288129 315.098,60.2095781 315.098,52.5719995 C315.098,43.1523192 317.8876,35.8966195 323.0864,30.2957285 C328.2852,24.6948375 335.5128,21.894392 344.896,21.894392 C353.5184,21.894392 360.4924,24.6948375 365.6912,29.9138496 C370.5096,34.7509827 372.9188,40.7337526 372.9188,47.6075734 C372.9188,50.4080189 372.5384,52.1901205 371.524,53.2084644 C370.5096,54.2268082 368.7344,54.6086871 365.9448,54.6086871 L330.948,54.6086871 L330.948,54.6086871 Z M358.7172,45.5708857 C358.3368,41.7520964 356.942,38.9516509 354.1524,36.5330844 C351.7432,34.1145178 348.5732,33.096174 345.1496,33.096174 C337.5416,33.096174 332.7232,37.2968422 330.948,45.5708857 L358.7172,45.5708857 L358.7172,45.5708857 Z M392.6996,54.6086871 C392.6996,58.8093553 394.0944,62.2462657 396.5036,65.0467112 C398.9128,67.8471567 402.7168,68.8655005 407.2816,68.8655005 C410.7052,68.8655005 413.4948,68.2290356 415.904,66.8288129 C416.2844,66.446934 417.9328,65.4285901 420.4688,63.0100236 C422.244,61.6098008 423.8924,60.973336 425.2872,60.973336 C427.0624,60.973336 428.7108,61.6098008 429.852,63.0100236 C430.8664,64.4102463 431.6272,65.8104691 431.6272,67.2106918 C431.6272,71.4113601 428.8376,74.8482704 423.0048,77.6487159 C418.1864,80.0672825 412.6072,81.0856263 407.028,81.0856263 C397.0108,81.0856263 389.0224,77.9033019 383.8236,72.0478249 C379.2588,66.8288129 376.8496,60.2095781 376.8496,52.5719995 C376.8496,43.1523192 379.6392,35.8966195 384.838,30.2957285 C390.0368,24.6948375 397.2644,21.894392 406.6476,21.894392 C415.27,21.894392 422.244,24.6948375 427.4428,29.9138496 C432.2612,34.7509827 434.6704,40.7337526 434.6704,47.6075734 C434.6704,50.4080189 434.29,52.1901205 433.2756,53.2084644 C432.2612,54.2268082 430.486,54.6086871 427.6964,54.6086871 L392.6996,54.6086871 L392.6996,54.6086871 Z M420.0884,45.5708857 C419.708,41.7520964 418.3132,38.9516509 415.5236,36.5330844 C413.1144,34.1145178 409.9444,33.096174 406.5208,33.096174 C398.9128,33.096174 394.0944,37.2968422 392.3192,45.5708857 L420.0884,45.5708857 L420.0884,45.5708857 Z" id="Shape"></path></g><path d="M165.871506,93.4677142 C165.077518,87.407344 159.3608,82.6228412 152.850094,83.4202584 L125.536889,86.9288938 L155.073262,58.5408436 C159.3608,54.2347911 159.837193,46.73907 155.549655,42.4330174 C151.262117,38.1269648 143.798625,37.6485146 139.511087,41.9545672 L119.502576,61.0925784 L126.80727,20.5837879 C128.077652,14.5234175 123.790114,8.30356388 117.755801,7.02769645 L117.755801,7.02769645 C111.721488,5.75182904 105.528378,10.0578816 104.257996,16.1182518 L99.494065,43.2304346 L82.185115,6.54924617 C79.6443517,0.807842774 72.6572527,-1.74389207 66.9405353,1.28629305 C61.2238179,3.8380279 58.6830546,10.8552987 61.700211,16.5967021 L73.4512412,41.4761168 L37.404162,21.8596553 C31.6874446,18.8294701 24.8591432,20.5837879 21.8419868,26.1657078 C18.8248304,31.9071111 21.0479983,38.7648985 26.605918,41.7950837 L50.901967,54.8727248 L10.0909566,60.1356778 C4.05664374,60.933095 -0.707287438,66.6744984 0.0867010911,73.213319 C0.880689621,79.2736892 6.59740703,84.0581921 13.108113,83.2607749 L40.4213184,79.7521395 L10.8849451,108.14019 C6.59740703,112.446242 6.12101391,119.941963 10.408552,124.248016 C14.69609,128.554069 22.1595822,129.032519 26.4471203,124.726466 L46.4556312,105.588455 L38.6745436,146.097245 C37.404162,152.157615 41.6917,158.377469 47.7260129,159.653337 C53.7603257,160.929204 59.9534362,156.623152 61.2238179,150.562781 L65.987749,123.450599 L83.7730921,160.450754 C86.3138554,166.192157 93.3009544,168.743892 99.0176719,165.713707 L99.0176719,165.713707 C104.734389,163.161973 107.275153,156.144702 104.257996,150.403297 L92.5069659,125.523883 L128.554045,145.299828 C134.270763,148.330014 141.099064,146.097245 144.11622,140.515326 C147.133377,134.773922 144.910209,127.916135 139.352289,124.88595 L115.05624,111.808308 L155.867251,106.545355 C162.377957,105.588455 166.824292,99.5280845 165.871506,93.4677142 L165.871506,93.4677142 Z M82.9791036,102.079819 C72.498455,102.079819 64.2409743,93.7866812 64.2409743,83.2607749 C64.2409743,72.7348686 72.498455,64.4417304 82.9791036,64.4417304 C93.4597522,64.4417304 101.717233,72.7348686 101.717233,83.2607749 C101.717233,93.7866812 93.4597522,102.079819 82.9791036,102.079819 L82.9791036,102.079819 Z" id="Shape"></path></g></g></g></svg> 