<?xml version="1.0" encoding="utf-8"?>
<!-- Generator: Adobe Illustrator 16.0.0, SVG Export Plug-In . SVG Version: 6.00 Build 0)  -->
<!DOCTYPE svg PUBLIC "-//W3C//DTD SVG 1.1//EN" "http://www.w3.org/Graphics/SVG/1.1/DTD/svg11.dtd">
<svg version="1.1" id="Layer_1" xmlns="http://www.w3.org/2000/svg" xmlns:xlink="http://www.w3.org/1999/xlink" x="0px" y="0px"
	 width="512px" height="168px" viewBox="0 0 512 168" enable-background="new 0 0 512 168" xml:space="preserve">
<linearGradient id="SVGID_1_" gradientUnits="userSpaceOnUse" x1="132.7852" y1="31.897" x2="409.9572" y2="156.8196">
	<stop  offset="0.0056" style="stop-color:#00AD8E"/>
	<stop  offset="0.5" style="stop-color:#DA2128"/>
	<stop  offset="1" style="stop-color:#F2832C"/>
</linearGradient>
<path fill="url(#SVGID_1_)" d="M82.834,48.619L55.102,62.15c-8.186,3.992-11.596,13.9-7.603,22.086l13.529,27.733
	c3.995,8.187,13.903,11.595,22.088,7.603l27.731-13.53c8.186-3.993,11.597-13.902,7.603-22.089l-13.53-27.731
	C100.928,48.036,91.02,44.625,82.834,48.619z M108.612,88.754c1.33,2.728,0.18,6.15-2.548,7.481l-10.391,5.068
	c-0.004,0.002-0.013-0.004-0.019-0.004l-8.913,4.348c0.024-0.008,0.051-0.013,0.076-0.024l-8.486,4.139
	c-2.729,1.331-6.052,0.149-7.384-2.577l-4.936-10.118c-0.031-0.197-0.076-0.409-0.087-0.6c-0.06-1.019,0.051-1.952,0.342-2.794
	c0.288-0.84,0.721-1.564,1.3-2.168c0.581-0.603,1.223-1.078,1.928-1.422c1.13-0.551,2.138-0.811,3.028-0.78
	c0.89,0.033,1.859,0.229,2.91,0.59l3.507-10.363c-1.889-0.65-3.643-0.899-5.26-0.753c-1.619,0.149-3.32,0.659-5.107,1.531
	c-1.978,0.964-3.579,2.228-4.847,3.806c-1.03,1.282-1.312,2.338-2.14,3.774l-4.145-8.499c-1.331-2.729-0.215-6.022,2.513-7.354
	l8.431-4.112l-0.005-0.011l13.215-6.446l0.005,0.011l6.063-2.959c2.729-1.332,6.032-0.194,7.363,2.535l5.296,10.854
	c0.024,0.909-0.086,1.749-0.349,2.509c-0.289,0.84-0.723,1.561-1.302,2.166c-0.581,0.602-1.224,1.075-1.929,1.419
	c-1.129,0.552-2.139,0.811-3.029,0.777c-0.89-0.032-1.858-0.228-2.91-0.589l-3.508,10.363c1.892,0.65,3.645,0.901,5.262,0.754
	c1.619-0.148,3.32-0.658,5.109-1.53c1.976-0.964,3.627-2.253,4.896-3.833c0.919-1.143,1.167-2.068,2.048-3.395L108.612,88.754z
	 M165.135,66.08l-8.633,8.721c-0.882-0.881-1.763-1.555-2.644-2.026c-0.882-0.47-2.026-0.707-3.436-0.707
	c-0.881,0-1.763,0.165-2.642,0.487c-0.882,0.322-1.675,0.837-2.379,1.54c-0.705,0.706-1.277,1.587-1.718,2.643
	c-0.441,1.058-0.661,2.32-0.661,3.789v27.663h-11.453v-45.9h11.188v4.407c1.115-1.352,2.701-2.512,4.758-3.48
	c2.054-0.969,4.316-1.454,6.783-1.454c2.23,0,4.198,0.322,5.902,0.969C161.904,63.378,163.549,64.493,165.135,66.08z
	 M197.333,67.401c-1.408-1.527-3.29-2.848-5.638-3.965c-2.349-1.114-5.227-1.673-8.634-1.673c-3.407,0-6.27,0.56-8.589,1.673
	c-2.321,1.117-4.184,2.438-5.594,3.965c-2.056,2.174-3.436,4.641-4.14,7.4c-0.706,2.761-1.058,6.226-1.058,10.395
	c0,4.172,0.353,7.65,1.058,10.439c0.704,2.79,2.083,5.271,4.14,7.443c1.41,1.528,3.273,2.852,5.594,3.966
	c2.319,1.115,5.182,1.673,8.589,1.673c3.407,0,6.285-0.558,8.634-1.673c2.348-1.114,4.229-2.438,5.638-3.966
	c2.056-2.172,3.437-4.653,4.142-7.443c0.705-2.789,1.057-6.268,1.057-10.439c0-4.169-0.352-7.634-1.057-10.395
	C200.77,72.042,199.39,69.575,197.333,67.401z M190.554,91.715c-0.291,1.938-1.014,3.495-2.177,4.671
	c-1.336,1.351-3.108,2.024-5.315,2.024c-2.148,0-3.891-0.674-5.227-2.024c-1.161-1.176-1.889-2.732-2.178-4.671
	c-0.291-1.938-0.435-4.109-0.435-6.519c0-2.407,0.144-4.566,0.435-6.474c0.29-1.909,1.017-3.451,2.178-4.627
	c1.336-1.349,3.078-2.027,5.227-2.027c2.208,0,3.979,0.678,5.315,2.027c1.163,1.176,1.887,2.718,2.177,4.627
	c0.291,1.907,0.437,4.066,0.437,6.474C190.991,87.605,190.845,89.777,190.554,91.715z M237.688,65.815
	c-3.314-2.702-8.205-4.053-14.673-4.053c-3.818,0-6.975,0.441-9.47,1.32c-2.498,0.883-4.862,2.556-7.092,5.022l7.313,7.137
	c0.586-0.705,1.174-1.292,1.761-1.763c0.588-0.47,1.218-0.851,1.895-1.146c0.675-0.292,1.423-0.515,2.247-0.661
	c0.821-0.146,1.79-0.219,2.907-0.219c3.053,0,5.241,0.572,6.563,1.717c1.321,1.146,1.982,2.981,1.982,5.507v2.29h-10.801
	c-2.635,0-4.931,0.353-6.893,1.059c-1.961,0.702-3.584,1.659-4.874,2.861c-1.288,1.205-2.254,2.614-2.897,4.229
	c-0.645,1.614-0.966,3.334-0.966,5.152c0,2.057,0.321,3.965,0.966,5.728c0.644,1.763,1.581,3.289,2.81,4.581
	c2.693,2.702,6.586,4.053,11.68,4.053c2.632,0,4.784-0.352,6.452-1.058c1.669-0.705,3.263-1.82,4.786-3.348v3.965h11.277V77.973
	C242.66,72.57,241.003,68.517,237.688,65.815z M231.12,91.275c0,2.818-0.556,4.757-1.664,5.814c-0.995,1-2.045,1.616-3.155,1.85
	c-1.109,0.236-2.453,0.354-4.027,0.354c-2.22,0-3.871-0.485-4.951-1.454c-1.081-0.97-1.621-2.247-1.621-3.833
	c0-1.644,0.555-2.922,1.665-3.832c1.108-0.91,2.685-1.365,4.729-1.365h9.024V91.275z M275.916,62.731
	c1.703,0.646,3.348,1.762,4.934,3.349l-8.633,8.721c-0.883-0.881-1.764-1.555-2.643-2.026c-0.881-0.47-2.027-0.707-3.438-0.707
	c-0.881,0-1.762,0.165-2.643,0.487s-1.674,0.837-2.379,1.54c-0.705,0.706-1.277,1.587-1.717,2.643
	c-0.441,1.058-0.662,2.32-0.662,3.789v27.663h-11.452v-45.9h11.19v4.407c1.113-1.352,2.699-2.512,4.756-3.48
	c2.055-0.969,4.316-1.454,6.783-1.454C272.244,61.763,274.213,62.085,275.916,62.731z M282.963,62.29h11.541v45.9h-11.541V62.29z
	 M282.787,45.113h11.807v9.337h-11.807V45.113z M336.701,71.85c0.617,2.145,0.926,4.478,0.926,7.003v29.337h-11.541V80.438
	c0-1.585-0.219-2.906-0.656-3.965c-0.438-1.056-1.023-1.907-1.754-2.554c-0.729-0.647-1.547-1.114-2.451-1.409
	c-0.906-0.292-1.795-0.442-2.672-0.442s-1.768,0.15-2.672,0.442c-0.906,0.295-1.723,0.762-2.451,1.409
	c-0.73,0.646-1.33,1.498-1.797,2.554c-0.467,1.059-0.699,2.38-0.699,3.965v27.752H299.48v-45.9h11.189v4.231
	c1.525-1.587,3.287-2.776,5.285-3.569c1.994-0.793,4.053-1.189,6.168-1.189c2.289,0,4.346,0.353,6.164,1.056
	c1.82,0.707,3.379,1.707,4.67,2.997C334.838,67.694,336.086,69.706,336.701,71.85z M368.285,62.29v4.318
	c-1.586-1.763-3.23-3.01-4.934-3.744c-1.705-0.733-3.789-1.102-6.256-1.102c-2.232,0-4.303,0.353-6.211,1.056
	c-1.908,0.707-3.51,1.707-4.801,2.997c-1.057,1.057-1.91,2.232-2.555,3.524c-0.648,1.291-1.115,2.687-1.41,4.184
	c-0.295,1.497-0.484,3.115-0.572,4.846c-0.088,1.732-0.133,3.598-0.133,5.594c0,1.999,0.045,3.877,0.133,5.639
	s0.277,3.393,0.572,4.89c0.295,1.498,0.762,2.893,1.41,4.185c0.645,1.292,1.498,2.466,2.555,3.523
	c1.291,1.293,2.877,2.291,4.756,2.994c1.881,0.706,3.936,1.06,6.168,1.06s4.229-0.338,5.99-1.016
	c1.764-0.672,3.406-1.862,4.934-3.564v4.666c0,1.177-0.162,2.335-0.484,3.48c-0.324,1.146-0.854,2.158-1.586,3.04
	c-0.734,0.881-1.689,1.598-2.863,2.157c-1.176,0.559-2.613,0.837-4.316,0.837c-1.939,0-3.598-0.278-4.977-0.837
	c-1.381-0.56-2.717-1.453-4.01-2.687l-7.135,7.225c2.408,2.29,4.902,3.861,7.488,4.714c2.584,0.85,5.639,1.276,9.162,1.276
	c3.053,0,5.828-0.472,8.324-1.409c2.496-0.941,4.625-2.261,6.387-3.965c1.764-1.703,3.113-3.715,4.053-6.034
	c0.939-2.321,1.41-4.86,1.41-7.621V62.29H368.285z M367.713,88.411c-0.145,1.44-0.482,2.718-1.008,3.833
	c-0.525,1.116-1.285,2.014-2.275,2.688c-0.994,0.676-2.336,1.012-4.029,1.012s-3.037-0.336-4.029-1.012
	c-0.994-0.674-1.736-1.571-2.234-2.688c-0.496-1.115-0.814-2.393-0.963-3.833c-0.145-1.438-0.219-2.921-0.219-4.448
	c0-1.526,0.074-3.009,0.219-4.449c0.148-1.438,0.467-2.7,0.963-3.787c0.498-1.087,1.24-1.967,2.234-2.645
	c0.992-0.674,2.336-1.014,4.029-1.014s3.035,0.34,4.029,1.014c0.99,0.678,1.75,1.558,2.275,2.645s0.863,2.35,1.008,3.787
	c0.146,1.44,0.219,2.923,0.219,4.449C367.932,85.49,367.859,86.974,367.713,88.411z M388.068,95.081h13.107v13.02h-13.107V95.081z
	 M409.18,62.267h11.525v45.833H409.18V62.267z M409.004,45.113h11.789v9.325h-11.789V45.113z M464.777,74.76
	c-0.703-2.756-2.082-5.22-4.135-7.39c-1.406-1.525-3.285-2.843-5.629-3.959c-2.348-1.114-5.221-1.671-8.623-1.671
	c-3.4,0-6.26,0.558-8.576,1.671c-2.316,1.116-4.18,2.435-5.586,3.959c-2.053,2.169-3.432,4.634-4.135,7.39
	c-0.703,2.758-1.055,6.217-1.055,10.381s0.352,7.64,1.055,10.424c0.703,2.787,2.082,5.265,4.135,7.434
	c1.406,1.526,3.27,2.846,5.586,3.96c2.316,1.113,5.176,1.672,8.576,1.672c3.402,0,6.275-0.559,8.623-1.672
	c2.344-1.114,4.223-2.434,5.629-3.96c2.053-2.169,3.432-4.646,4.135-7.434c0.703-2.784,1.055-6.26,1.055-10.424
	S465.48,77.518,464.777,74.76z M453.873,91.649c-0.289,1.937-1.014,3.49-2.174,4.664c-1.336,1.35-3.104,2.023-5.309,2.023
	c-2.145,0-3.885-0.674-5.219-2.023c-1.16-1.174-1.885-2.728-2.176-4.664c-0.289-1.935-0.434-4.104-0.434-6.509
	c0-2.404,0.145-4.559,0.434-6.467c0.291-1.905,1.016-3.443,2.176-4.619c1.334-1.347,3.074-2.022,5.219-2.022
	c2.205,0,3.973,0.675,5.309,2.022c1.16,1.176,1.885,2.714,2.174,4.619c0.291,1.908,0.436,4.063,0.436,6.467
	C454.309,87.546,454.164,89.715,453.873,91.649z"/>
</svg>
